<?xml version="1.0" encoding="utf-8"?>
<!-- Generator: Adobe Illustrator 27.2.0, SVG Export Plug-In . SVG Version: 6.00 Build 0)  -->
<svg version="1.1" id="Calque_1" xmlns="http://www.w3.org/2000/svg" xmlns:xlink="http://www.w3.org/1999/xlink" x="0px" y="0px"
	 viewBox="0 0 580.81 176.57" style="enable-background:new 0 0 580.81 176.57;" xml:space="preserve">
<style type="text/css">
	.st0{fill:#004489;}
	.st1{fill:#FE000C;}
</style>
<g>
	<g>
		<path class="st0" d="M48.54,54.34h32.32c15.21,0,22.64,3.28,22.64,17.62c0,5.97-2.48,9.25-6.19,10.92
			c4.37,1.89,6.19,5.46,6.19,11.21v7.5H90.4v-6.55c0-4.95-1.97-6.84-8.81-6.84H61.64v13.4h-13.1V54.34z M80.86,78
			c6.19,0,9.17-0.44,9.17-5.9s-2.98-5.9-9.17-5.9H61.64V78H80.86z"/>
		<path class="st0" d="M108.47,77.93c0-17.47,8.37-24.46,30.5-24.46c22.13,0,30.5,6.99,30.5,24.46c0,17.47-8.37,24.53-30.5,24.53
			C116.84,102.46,108.47,95.4,108.47,77.93z M138.97,90.45c12.52,0,16.67-3.2,16.67-12.52c0-9.25-4.15-12.45-16.67-12.45
			s-16.67,3.2-16.67,12.45C122.3,87.25,126.45,90.45,138.97,90.45z"/>
		<path class="st0" d="M236.15,54.34l23.15-0.07c20.67-0.07,30.5,6.19,30.5,23.66c0,17.47-9.83,23.66-30.5,23.66h-23.15V54.34z
			 M259.3,89.72c11.07,0,16.67-2.48,16.67-11.79c0-9.25-5.61-11.79-16.67-11.79h-10.05v23.59H259.3z"/>
		<path class="st0" d="M294.24,77.93c0-17.47,8.37-24.46,30.5-24.46c21.4,0,29.34,5.1,30.29,19.29H340.9
			c-0.95-5.24-4.8-7.28-16.16-7.28c-12.52,0-16.67,3.2-16.67,12.45c0,9.32,4.15,12.52,16.67,12.52c11.43,0,15.22-2.04,16.16-7.35
			h14.12c-0.95,14.2-8.81,19.36-30.29,19.36C302.61,102.46,294.24,95.4,294.24,77.93z"/>
		<path class="st0" d="M377.02,54.34h20.6c7.21,12.45,16.38,33.12,19.51,47.25h-14.78c-0.58-2.26-1.24-4.73-2.04-7.43H374.4
			c-0.8,2.69-1.46,5.17-2.04,7.43h-14.78C360.71,87.47,369.88,66.79,377.02,54.34z M396.75,83.83c-2.55-6.55-5.68-13.54-9.39-20.17
			c-3.71,6.62-6.84,13.61-9.39,20.17H396.75z"/>
		<path class="st0" d="M422.26,54.34h32.32c15.21,0,22.64,3.28,22.64,17.62c0,5.97-2.48,9.25-6.19,10.92
			c4.37,1.89,6.19,5.46,6.19,11.21v7.5h-13.1v-6.55c0-4.95-1.97-6.84-8.81-6.84h-19.95v13.4h-13.1V54.34z M454.59,78
			c6.19,0,9.17-0.44,9.17-5.9s-2.99-5.9-9.17-5.9h-19.22V78H454.59z"/>
		<path class="st0" d="M484.22,54.34h47.32v11.87h-34.22v6.7h31.16v10.12h-31.16v6.7h34.94v11.87h-48.05V54.34z"/>
	</g>
	<g>
		<path class="st1" d="M236.86,108.68c0,0-1.27,0.01-1.53-0.03c-1.09-0.14-2.13-0.73-2.75-1.67c-0.62-0.97-0.58-1.47-1.03-3.16
			l-0.54-2.24l-0.66-2.72c0,0-0.16-0.63-0.21-0.8c-3.72-13.86-12.01-32.27-18.64-43.72h-20.6c-6.56,11.45-14.85,29.86-18.57,43.72
			l-0.86,3.52l-0.54,2.24c-0.45,1.69-0.41,2.19-1.03,3.16c-0.62,0.94-1.66,1.53-2.76,1.67c-0.26,0.04-1.52,0.03-1.52,0.03
			l-117.09-0.03v14.45l117.09-0.02h0.74c2.79,0.03,5.58-0.55,8.1-1.74c4.45-2.07,7.95-6.01,9.52-10.65
			c0.89-2.98,3.52-13.9,4.3-16.53h25.92c0.78,2.63,3.41,13.57,4.3,16.53c1.57,4.64,5.07,8.58,9.52,10.65
			c2.52,1.19,5.31,1.77,8.09,1.74h0.75l117.08,0.02v-14.45L236.86,108.68z M191.85,83.82c2.55-6.55,5.68-13.54,9.39-20.17
			c3.71,6.63,6.84,13.62,9.39,20.17H191.85z"/>
	</g>
</g>
</svg>
